<svg fill="white" viewBox="0 0 24 24" width="32" height="32" xmlns="http://www.w3.org/2000/svg">
    <path d="M12 .5C5.73.5.5 5.73.5 12a11.5 11.5 0 008.01 10.95c.59.11.79-.26.79-.58v-2.02c-3.26.71-3.95-1.57-3.95-1.57a3.12 3.12 0 00-1.31-1.72c-1.07-.73.08-.72.08-.72a2.47 2.47 0 011.8 1.21 2.5 2.5 0 003.41.98c.25-.18.47-.41.65-.68a2.48 2.48 0 01.74-1.65c-2.6-.3-5.33-1.3-5.33-5.81a4.55 4.55 0 011.21-3.16 4.23 4.23 0 01.12-3.12s.98-.31 3.21 1.2a11 11 0 015.85 0c2.23-1.51 3.2-1.2 3.2-1.2.44.98.48 2.09.12 3.12a4.53 4.53 0 011.21 3.16c0 4.52-2.74 5.5-5.34 5.79a2.8 2.8 0 01.8 2.18v3.24c0 .32.2.7.8.58A11.5 11.5 0 0023.5 12C23.5 5.73 18.27.5 12 .5z"/>
</svg>